<?xml version="1.0" encoding="UTF-8" standalone="no"?>
<!-- Created with Inkscape (http://www.inkscape.org/) -->

<svg
   version="1.1"
   id="svg1"
   width="1024"
   height="1024"
   viewBox="0 0 1024 1024"
   sodipodi:docname="Gemini_Generated_Image_we51vwe51vwe51vw.svg"
   inkscape:version="1.4.3 (0d15f75, 2025-12-25)"
   xmlns:inkscape="http://www.inkscape.org/namespaces/inkscape"
   xmlns:sodipodi="http://sodipodi.sourceforge.net/DTD/sodipodi-0.dtd"
   xmlns="http://www.w3.org/2000/svg"
   xmlns:svg="http://www.w3.org/2000/svg">
  <defs
     id="defs1" />
  <sodipodi:namedview
     id="namedview1"
     pagecolor="#ffffff"
     bordercolor="#000000"
     borderopacity="0.25"
     inkscape:showpageshadow="2"
     inkscape:pageopacity="0.0"
     inkscape:pagecheckerboard="0"
     inkscape:deskcolor="#d1d1d1"
     showgrid="false"
     inkscape:zoom="0.75488281"
     inkscape:cx="511.33765"
     inkscape:cy="512"
     inkscape:window-width="1920"
     inkscape:window-height="991"
     inkscape:window-x="-9"
     inkscape:window-y="-9"
     inkscape:window-maximized="1"
     inkscape:current-layer="g1" />
  <g
     inkscape:groupmode="layer"
     inkscape:label="Image"
     id="g1">
    <path
       style="fill:#0f172a;fill-opacity:1;stroke:none"
       d="m 144.66946,461.02996 c -10.80695,-2.48505 -13.5,-4.3699 -13.5,-9.44857 0,-6.81411 9.90955,-19.85953 15.08568,-19.85953 1.17171,0 6.25661,2.03434 11.29979,4.52076 5.41598,2.67022 11.23887,4.76585 14.22496,5.11951 10.9169,1.29294 23.12899,-5.19706 32.03104,-17.02261 9.52337,-12.65093 11.12065,-16.53405 52.90559,-128.61766 3.9983,-10.725 7.96803,-21.13034 8.82164,-23.12298 0.8536,-1.99264 1.26985,-3.90514 0.92499,-4.25 -0.34486,-0.34486 -5.38952,-0.63391 -11.21035,-0.64233 -5.82084,-0.008 -11.18731,-0.39811 -11.92551,-0.86598 -1.89689,-1.20225 -0.23751,-3.49187 6.9711,-9.61871 7.55731,-6.42322 13.0361,-9.25537 19.77829,-10.224 5.30881,-0.7627 5.43492,-0.85873 6.92938,-5.27642 4.07489,-12.04555 12.85069,-33.41545 16.92089,-41.20399 5.87798,-11.24778 15.36358,-23.82833 26.14747,-34.67882 18.18861,-18.30094 39.31903,-30.98677 60.40656,-36.26559 6.73978,-1.68716 10.39999,-1.97368 20.68848,-1.6195 11.14613,0.38371 13.12452,0.73289 18.26599,3.22395 7.6427,3.70293 11.11529,7.80742 10.38948,12.28006 -1.20116,7.40188 -9.16999,15.70783 -17.87848,18.63482 -5.57755,1.87465 -7.19474,1.44937 -8.74799,-2.3005 -1.59609,-3.8533 -7.77924,-9.66 -12.2851,-11.53715 -8.95677,-3.7314 -20.97046,-2.90148 -31.04002,2.14428 -9.3134,4.66687 -20.12599,18.0344 -26.97201,33.34531 -3.93024,8.78985 -24.73187,62.28954 -24.73187,63.60785 0,0.18507 11.77522,0.45647 26.16714,0.6031 20.15571,0.20536 26.26485,0.56007 26.59248,1.54404 0.23394,0.70259 -3.28803,5.08183 -7.82659,9.73164 l -8.25194,8.45419 -22.55473,0.26837 -22.55473,0.26836 -2.81752,7.5 c -1.54964,4.125 -3.89074,10.425 -5.20246,14 -5.40468,14.73014 -23.0081,60.94892 -30.2793,79.5 -4.99813,12.7518 -13.17849,28.23804 -19.96062,37.78748 -17.62658,24.81873 -50.66345,48.065 -75.51957,53.13906 -7.30709,1.49166 -16.90997,1.88924 -21.29216,0.88156 z m 375.28047,-80.277 c -12.52755,-2.27373 -23.64904,-10.97546 -27.91684,-21.84284 -3.18612,-8.11301 -3.20196,-25.18646 -0.0345,-37.18826 6.92324,-26.23291 25.4568,-50.0687 50.76783,-65.29188 15.33257,-9.22169 30.41586,-13.26382 46.58829,-12.48506 8.34666,0.40192 10.70836,0.91733 15.55051,3.3937 3.31217,1.69391 6.66546,4.33876 7.98674,6.29941 5.77582,8.57074 -0.11345,21.08383 -9.92309,21.08383 -4.62691,0 -6.44914,-0.86774 -13.7994,-6.57126 -14.25836,-11.06396 -28.03442,-9.42519 -41.80864,4.97347 -16.40092,17.14444 -27.52824,51.93998 -23.1454,72.37648 1.25634,5.85813 5.80034,11.71242 10.67035,13.74724 11.85377,4.95283 32.7307,-1.95002 51.75855,-17.1137 3.73528,-2.97673 7.37385,-5.41223 8.0857,-5.41223 1.72643,0 5.43944,4.8126 5.43944,7.0503 0,1.86056 -8.52626,9.73177 -18.10096,16.71032 -21.29076,15.51782 -45.24195,23.33355 -62.11857,20.27048 z m 119.59926,-0.0519 c -5.1138,-0.71883 -8.88779,-3.12487 -11.42456,-7.28352 -2.84915,-4.67076 -3.33734,-8.86538 -1.91463,-16.45082 1.81495,-9.67667 4.06151,-15.74608 19.84384,-53.61103 7.76359,-18.6264 14.11562,-34.2639 14.11562,-34.75 0,-0.4861 -4.75458,-0.88382 -10.56574,-0.88382 -15.0403,0 -17.66361,-1.95741 -10.75394,-8.02417 2.02417,-1.77725 6.16758,-4.82245 9.20757,-6.7671 4.71155,-3.01395 6.61419,-3.6055 12.89252,-4.00842 l 7.36527,-0.47267 2.48767,-5.61382 c 1.36822,-3.0876 4.36452,-10.95914 6.65845,-17.49231 2.78072,-7.91957 4.88494,-12.34643 6.31359,-13.28251 2.99746,-1.96401 28.99511,-11.339 31.44402,-11.339 1.10735,0 2.2603,0.64351 2.56211,1.43001 0.54138,1.41082 -0.0381,2.96618 -5.7245,15.36489 -1.58786,3.4622 -2.88702,6.5046 -2.88702,6.7609 0,0.2563 -0.86544,2.3736 -1.92319,4.7051 -1.05776,2.33151 -3.49923,7.71739 -5.42548,11.96863 l -3.50228,7.72954 20.16247,0.27046 c 17.30083,0.23209 20.20485,0.4911 20.46114,1.82496 0.16428,0.85497 -2.64865,4.90497 -6.25095,9 l -6.54963,7.44551 -17.65899,0.5 -17.65899,0.5 -2.90161,7 c -13.59722,32.80261 -26.96992,67.24912 -27.89452,71.85304 -0.97487,4.85427 -0.89399,5.94303 0.61226,8.24187 1.57737,2.40737 2.14531,2.59257 6.23244,2.03237 6.14414,-0.84215 14.11476,-5.28926 25.34425,-14.14049 5.1992,-4.09808 10.03604,-7.45909 10.74854,-7.46892 1.74254,-0.024 6.20454,4.5302 6.20454,6.33279 0,2.21921 -14.72413,15.55995 -24.62793,22.31404 -17.43796,11.89216 -33.92448,17.87027 -44.99234,16.31449 z m -302.76042,-1.01361 c -9.59959,-2.87424 -13.31374,-14.80232 -10.20694,-32.77979 2.93113,-16.96099 8.0359,-29.08874 19.68108,-46.75765 15.71492,-23.84382 42.89585,-45.1989 66.90655,-52.56607 10.21344,-3.13377 22.73503,-3.23685 28.74551,-0.23664 l 4.24551,2.11921 2.27209,-4.12232 2.27209,-4.12232 12.2324,-0.28078 c 14.46375,-0.33199 14.03234,-0.92004 8.67053,11.81851 -1.95902,4.65425 -6.1891,15.43727 -9.40017,23.96227 -3.21107,8.525 -6.31714,16.625 -6.90238,18 -2.19749,5.16298 -13.4624,35.73505 -15.29153,41.5 -1.04703,3.3 -2.33582,8.17542 -2.86397,10.83425 -2.36564,11.90933 5.01059,11.40783 21.1346,-1.43689 4.06193,-3.23582 8.09438,-5.88647 8.96101,-5.89033 2.20335,-0.01 5.92431,4.203 5.92431,6.70742 0,2.64284 -5.33422,8.01949 -15.33376,15.45572 -18.52163,13.77375 -36.31671,20.61667 -46.49001,17.87728 -8.19043,-2.20545 -9.38485,-9.29461 -4.78323,-28.38952 1.43385,-5.94991 2.607,-11.14093 2.607,-11.53559 0,-0.39466 -4.8437,4.02887 -10.76379,9.83005 -23.03665,22.57397 -47.18222,34.33512 -61.6169,30.01319 z m 37.88069,-27.32001 c 17.53553,-8.18873 41.23911,-35.47713 50.66316,-58.32522 5.05135,-12.2467 8.83684,-23.13017 8.83684,-25.40629 0,-2.39313 -7.19107,-5.69032 -14.19922,-6.51049 -20.54326,-2.40422 -44.46769,23.22806 -57.02565,61.09643 -3.79269,11.4368 -4.91982,25.10403 -2.38888,28.96673 2.16625,3.30612 7.27821,3.3709 14.11375,0.17884 z M 734.378,379.05412 c -4.23094,-2.08524 -6.91773,-5.54545 -8.3183,-10.71279 -1.44821,-5.34314 -0.57748,-22.31364 1.54014,-30.01731 5.99298,-21.8018 19.9319,-44.23176 38.27651,-61.59306 26.59959,-25.17379 58.98445,-37.48581 76.43002,-29.05703 2.31562,1.11879 4.26333,1.92476 4.32825,1.79105 0.0649,-0.13371 1.3432,-2.15561 2.84063,-4.49311 l 2.72259,-4.25 8.23581,-0.21124 c 11.29772,-0.28979 14.69559,-0.16231 15.43705,0.57915 0.82224,0.82223 -0.49518,4.6762 -6.19818,18.13209 -4.90973,11.58423 -25.58592,66.06147 -29.60397,78 -1.31664,3.91204 -2.36545,9.42626 -2.37751,12.5 -0.0192,4.89251 0.21846,5.53419 2.15165,5.80949 3.01812,0.42981 8.47047,-2.55958 17.70887,-9.70937 4.33515,-3.35507 8.69201,-6.10012 9.68191,-6.10012 1.95941,0 5.93599,4.89531 5.93599,7.30742 0,4.02322 -21.10788,20.22384 -35.52003,27.26217 -20.7346,10.12597 -34.47997,7.87086 -34.47997,-5.6569 0,-4.92039 2.99279,-20.13332 4.99866,-25.40916 0.58152,-1.5295 0.86926,-2.96895 0.63943,-3.19878 -0.22983,-0.22983 -2.81457,2.11629 -5.74387,5.21359 -7.04136,7.4452 -23.18778,20.37858 -31.91125,25.56109 -14.32844,8.51237 -29.38976,11.89239 -36.77443,8.25282 z m 43.29146,-28.59925 c 16.97097,-10.07185 37.8405,-33.97459 46.67514,-53.45898 2.30634,-5.08652 10.82486,-27.80789 10.82486,-28.87304 0,-0.0915 -2.5875,-1.43946 -5.75,-2.99558 -4.70711,-2.31616 -7.01959,-2.81969 -12.75,-2.77625 -9.38639,0.0712 -16.58905,3.5961 -25.19568,12.33064 -15.43801,15.66744 -27.85309,39.30298 -31.85063,60.63652 -1.74964,9.33722 -1.33,14.73911 1.37945,17.75704 2.51423,2.8005 9.34138,1.72714 16.66686,-2.62035 z"
       id="path1" />
  </g>
</svg>
