<?xml version="1.0" encoding="UTF-8" standalone="no"?>
<!-- Created with Inkscape (http://www.inkscape.org/) -->

<svg
   version="1.1"
   id="svg1"
   width="992"
   height="1056"
   viewBox="0 0 992 1056"
   sodipodi:docname="Gemini_Generated_Image_yqwj24yqwj24yqwj.svg"
   inkscape:version="1.4.3 (0d15f75, 2025-12-25)"
   xmlns:inkscape="http://www.inkscape.org/namespaces/inkscape"
   xmlns:sodipodi="http://sodipodi.sourceforge.net/DTD/sodipodi-0.dtd"
   xmlns="http://www.w3.org/2000/svg"
   xmlns:svg="http://www.w3.org/2000/svg">
  <defs
     id="defs1" />
  <sodipodi:namedview
     id="namedview1"
     pagecolor="#ffffff"
     bordercolor="#000000"
     borderopacity="0.25"
     inkscape:showpageshadow="2"
     inkscape:pageopacity="0.0"
     inkscape:pagecheckerboard="0"
     inkscape:deskcolor="#d1d1d1"
     showgrid="false"
     inkscape:zoom="0.73200758"
     inkscape:cx="489.06598"
     inkscape:cy="432.37257"
     inkscape:window-width="1920"
     inkscape:window-height="991"
     inkscape:window-x="-9"
     inkscape:window-y="-9"
     inkscape:window-maximized="1"
     inkscape:current-layer="g1" />
  <g
     inkscape:groupmode="layer"
     inkscape:label="Image"
     id="g1">
    <path
       id="path1"
       style="fill:#0f172a;fill-opacity:1;fill-rule:nonzero;stroke:none;stroke-width:1.03601;stroke-dasharray:none"
       d="m 710.78427,140.16448 c -68.38877,-3.92678 -143.90921,43.57886 -191.52553,98.31243 -40.27879,44.27388 -56.04264,96.22513 -76.35604,145.34988 -22.07503,-3.65594 -41.89582,10.19715 -59.5046,27.26716 -28.48292,19.51837 16.24331,11.27469 28.98187,13.053 26.33632,-5.82851 -0.0193,23.03111 -0.92186,35.98388 -32.74755,80.767 -63.07215,161.90283 -97.63244,242.37722 -13.60485,27.55564 -33.82582,60.91973 -67.98777,72.26207 -35.09575,11.11513 -53.45668,-15.68805 -78.16675,-19.38524 -25.42244,17.80263 -47.72665,53.68437 -10.01989,57.66125 45.37405,13.55489 104.55973,-14.65501 148.31997,-46.51252 53.89289,-38.83183 89.01818,-93.72388 108.02414,-147.68132 27.21346,-64.26796 52.00679,-128.73253 78.20608,-193.11009 31.67656,-0.17282 63.35313,-0.34565 95.0297,-0.51849 13.60521,-16.16983 59.41839,-47.09405 15.56381,-39.75531 -31.02702,-0.24532 -62.17296,-0.1088 -93.26516,-0.14459 16.65264,-43.15437 33.37596,-86.38402 53.04669,-129.23906 14.99367,-30.64011 38.35715,-68.79 77.69315,-77.97654 34.62881,-8.48848 65.81901,5.711 74.10574,32.44456 23.2173,7.04242 71.80225,-39.96542 44.69166,-54.81423 -12.4033,-9.89698 -29.35015,-15.83827 -48.28277,-15.57406 z" />
  </g>
</svg>
